P3
38 36 255
252 252 252 254 254 254 255 255 255 255 255 255 255 255 255 254 254 254 249 249 249 249 249 249 252 252 252 255 255 255 255 255 255 255 255 255 255 255 255 255 255 255 255 255 255 255 255 255 255 255 255 253 253 253 249 249 249 251 251 251 254 254 254 250 250 250 250 250 250 255 255 255 250 250 250 255 255 255 249 249 249 255 255 255 249 249 249 249 249 249 255 255 255 255 255 255 255 255 255 251 251 251 252 252 252 255 255 255 255 255 255 255 255 255 
255 255 255 255 255 255 251 251 251 249 249 249 251 251 251 252 252 252 255 255 255 255 255 255 255 255 255 255 255 255 255 255 255 255 255 255 255 255 255 255 255 255 250 250 250 250 250 250 238 238 238 250 250 250 255 255 255 233 233 233 248 248 248 255 255 255 255 255 255 255 255 255 255 255 255 255 255 255 250 250 250 255 255 255 255 255 255 241 241 241 255 255 255 242 242 242 251 251 251 252 252 252 249 249 249 252 252 252 251 251 251 249 249 249 
244 244 244 242 242 242 244 244 244 246 246 246 251 251 251 251 251 251 250 250 250 251 251 251 253 253 253 254 254 254 247 247 247 248 248 248 254 254 254 252 252 252 236 236 236 20 20 20 4 4 4 0 0 0 0 0 0 0 0 0 0 0 0 12 12 12 0 0 0 0 0 0 0 0 0 4 4 4 237 237 237 255 255 255 252 252 252 254 254 254 255 255 255 255 255 255 245 245 245 241 241 241 230 230 230 226 226 226 228 228 228 230 230 230 
221 221 221 226 226 226 224 224 224 231 231 231 239 239 239 249 249 249 251 251 251 251 251 251 254 254 254 255 255 255 255 255 255 0 0 0 0 0 0 0 0 0 0 0 0 0 0 0 0 0 0 7 7 7 3 3 3 10 10 10 5 5 5 0 0 0 255 255 255 255 255 255 255 255 255 255 255 255 254 254 254 252 252 252 245 245 245 245 245 245 198 198 198 193 193 193 197 197 197 198 198 198 199 199 199 196 196 196 191 191 191 203 203 203 
235 235 235 251 251 251 251 251 251 250 250 250 243 243 243 255 255 255 255 255 255 2 2 2 4 4 4 15 15 15 0 0 0 5 5 5 17 17 17 0 0 0 0 0 0 0 0 0 0 0 0 8 8 8 255 255 255 253 253 253 255 255 255 254 254 254 249 249 249 247 247 247 213 213 213 218 218 218 233 233 233 241 241 241 48 48 48 51 51 51 51 51 51 43 43 43 42 42 42 85 85 85 213 213 213 252 252 252 255 255 255 255 255 255 
255 255 255 255 255 255 248 248 248 0 0 0 0 0 0 0 0 0 0 0 0 4 4 4 0 0 0 0 0 0 15 15 15 12 12 12 0 0 0 2 2 2 255 255 255 255 255 255 255 255 255 255 255 255 255 255 255 238 238 238 197 197 197 189 189 189 200 200 200 211 211 211 221 221 221 217 217 217 24 24 24 18 18 18 15 15 15 47 47 47 218 218 218 254 254 254 255 255 255 254 254 254 254 254 254 254 254 254 252 252 252 9 9 9 
6 6 6 0 0 0 3 3 3 0 0 0 3 3 3 0 0 0 0 0 0 0 0 0 0 0 0 4 4 4 255 255 255 254 254 254 255 255 255 255 255 255 245 245 245 205 205 205 69 69 69 38 38 38 47 47 47 58 58 58 73 73 73 69 69 69 47 47 47 40 40 40 16 16 16 37 37 37 219 219 219 249 249 249 255 255 255 255 255 255 255 255 255 255 255 255 255 255 255 1 1 1 3 3 3 0 0 0 8 8 8 0 0 0 
0 0 0 11 11 11 0 0 0 12 12 12 0 0 0 0 0 0 255 255 255 253 253 253 255 255 255 255 255 255 255 255 255 227 227 227 58 58 58 14 14 14 11 11 11 19 19 19 39 39 39 37 37 37 12 12 12 5 5 5 16 16 16 22 22 22 219 219 219 249 249 249 255 255 255 255 255 255 255 255 255 255 255 255 255 255 255 0 0 0 9 9 9 0 0 0 2 2 2 0 0 0 0 0 0 0 0 0 0 0 0 2 2 2 
4 4 4 0 0 0 255 255 255 255 255 255 255 255 255 255 255 255 255 255 255 223 223 223 41 41 41 0 0 0 0 0 0 0 0 0 19 19 19 18 18 18 0 0 0 0 0 0 0 0 0 4 4 4 4 4 4 11 11 11 255 255 255 254 254 254 255 255 255 255 255 255 244 244 244 9 9 9 6 6 6 8 8 8 0 0 0 4 4 4 7 7 7 7 7 7 0 0 0 0 0 0 4 4 4 0 0 0 255 255 255 253 253 253 
255 255 255 255 255 255 255 255 255 223 223 223 41 41 41 0 0 0 0 0 0 0 0 0 19 19 19 18 18 18 0 0 0 0 0 0 0 0 0 4 4 4 4 4 4 11 11 11 16 16 16 37 37 37 255 255 255 255 255 255 250 250 250 1 1 1 0 0 0 2 2 2 0 0 0 0 0 0 0 0 0 0 0 0 0 0 0 0 0 0 0 0 0 0 0 0 255 255 255 251 251 251 255 255 255 255 255 255 255 255 255 227 227 227 
58 58 58 14 14 14 11 11 11 19 19 19 39 39 39 37 37 37 12 12 12 5 5 5 16 16 16 22 22 22 24 24 24 18 18 18 15 15 15 47 47 47 218 218 218 254 254 254 255 255 255 0 0 0 0 0 0 0 0 0 10 10 10 2 2 2 0 0 0 1 1 1 9 9 9 5 5 5 5 5 5 0 0 0 255 255 255 255 255 255 255 255 255 255 255 255 245 245 245 205 205 205 69 69 69 38 38 38 47 47 47 58 58 58 
73 73 73 69 69 69 47 47 47 40 40 40 48 48 48 51 51 51 51 51 51 43 43 43 42 42 42 85 85 85 213 213 213 252 252 252 255 255 255 255 255 255 0 0 0 0 0 0 0 0 0 0 0 0 14 14 14 2 2 2 0 0 0 0 0 0 0 0 0 11 11 11 236 236 236 250 250 250 255 255 255 255 255 255 255 255 255 238 238 238 197 197 197 189 189 189 200 200 200 211 211 211 221 221 221 217 217 217 198 198 198 193 193 193 
197 197 197 198 198 198 199 199 199 196 196 196 191 191 191 203 203 203 235 235 235 251 251 251 251 251 251 250 250 250 243 243 243 252 252 252 245 245 245 255 255 255 246 246 246 246 246 246 255 255 255 255 255 255 255 255 255 229 229 229 255 255 255 249 249 249 255 255 255 254 254 254 249 249 249 247 247 247 213 213 213 218 218 218 233 233 233 241 241 241 245 245 245 241 241 241 230 230 230 226 226 226 228 228 228 230 230 230 221 221 221 226 226 226 
224 224 224 231 231 231 239 239 239 249 249 249 251 251 251 251 251 251 254 254 254 255 255 255 240 240 240 15 15 15 255 255 255 251 251 251 251 251 251 251 251 251 255 255 255 253 253 253 255 255 255 247 247 247 255 255 255 255 255 255 254 254 254 252 252 252 245 245 245 245 245 245 249 249 249 252 252 252 251 251 251 249 249 249 244 244 244 242 242 242 244 244 244 246 246 246 251 251 251 251 251 251 250 250 250 251 251 251 253 253 253 254 254 254 
247 247 247 248 248 248 234 234 234 246 246 246 255 255 255 247 247 247 255 255 255 255 255 255 255 255 255 255 255 255 253 253 253 255 255 255 242 242 242 254 254 254 252 252 252 254 254 254 255 255 255 255 255 255 255 255 255 255 255 255 255 255 255 255 255 255 251 251 251 249 249 249 251 251 251 252 252 252 255 255 255 255 255 255 255 255 255 255 255 255 255 255 255 255 255 255 255 255 255 255 255 255 250 250 250 250 250 250 254 254 254 255 255 255 
234 234 234 255 255 255 246 246 246 255 255 255 246 246 246 255 255 255 255 255 255 254 254 254 252 252 252 244 244 244 252 252 252 254 254 254 252 252 252 251 251 251 255 255 255 255 255 255 255 255 255 255 255 255 249 249 249 248 248 248 249 249 249 252 252 252 255 255 255 255 255 255 255 255 255 255 255 255 255 255 255 255 255 255 255 255 255 255 255 255 253 253 253 254 254 254 233 233 233 252 252 252 251 251 251 255 255 255 255 255 255 250 250 250 
252 252 252 247 247 247 251 251 251 252 252 252 252 252 252 248 248 248 251 251 251 255 255 255 244 244 244 254 254 254 241 241 241 254 254 254 255 255 255 255 255 255 249 249 249 245 245 245 242 242 242 242 242 242 245 245 245 251 251 251 255 255 255 255 255 255 255 255 255 255 255 255 255 255 255 255 255 255 255 255 255 255 255 255 251 251 251 248 248 248 253 253 253 254 254 254 255 255 255 252 252 252 245 245 245 242 242 242 242 242 242 247 247 247 
248 248 248 255 255 255 255 255 255 255 255 255 252 252 252 251 251 251 242 242 242 247 247 247 255 255 255 255 255 255 252 252 252 248 248 248 244 244 244 242 242 242 244 244 244 248 248 248 248 248 248 248 248 248 255 255 255 255 255 255 255 255 255 255 255 255 250 250 250 255 255 255 247 247 247 248 248 248 255 255 255 255 255 255 255 255 255 253 253 253 243 243 243 234 234 234 241 241 241 247 247 247 253 253 253 255 255 255 255 255 255 255 255 255 
247 247 247 249 249 249 242 242 242 250 250 250 255 255 255 255 255 255 255 255 255 252 252 252 249 249 249 246 246 246 246 246 246 246 246 246 249 249 249 243 243 243 249 249 249 249 249 249 247 247 247 248 248 248 246 246 246 245 245 245 244 244 244 251 251 251 255 255 255 255 255 255 255 255 255 255 255 255 255 255 255 252 252 252 252 252 252 255 255 255 255 255 255 255 255 255 255 255 255 255 255 255 255 255 255 242 242 242 253 253 253 255 255 255 
255 255 255 255 255 255 255 255 255 255 255 255 255 255 255 255 255 255 255 255 255 254 254 254 249 249 249 245 245 245 242 242 242 234 234 234 230 230 230 240 240 240 240 240 240 236 236 236 244 244 244 255 255 255 255 255 255 255 255 255 255 255 255 255 255 255 255 255 255 255 255 255 255 255 255 255 255 255 255 255 255 255 255 255 255 255 255 255 255 255 255 255 255 254 254 254 255 255 255 251 251 251 255 255 255 252 252 252 255 255 255 255 255 255 
255 255 255 255 255 255 255 255 255 255 255 255 240 240 240 244 244 244 242 242 242 240 240 240 237 237 237 239 239 239 244 244 244 246 246 246 250 250 250 255 255 255 255 255 255 253 253 253 247 247 247 250 250 250 245 245 245 239 239 239 233 233 233 239 239 239 241 241 241 250 250 250 243 243 243 241 241 241 255 255 255 250 250 250 244 244 244 254 254 254 254 254 254 255 255 255 255 255 255 255 255 255 255 255 255 255 255 255 255 255 255 255 255 255 
255 255 255 255 255 255 237 237 237 243 243 243 245 245 245 243 243 243 245 245 245 254 254 254 254 254 254 255 255 255 255 255 255 250 250 250 243 243 243 249 249 249 248 248 248 242 242 242 246 246 246 252 252 252 254 254 254 255 255 255 248 248 248 247 247 247 255 255 255 255 255 255 236 236 236 255 255 255 251 251 251 255 255 255 253 253 253 255 255 255 255 255 255 255 255 255 255 255 255 255 255 255 255 255 255 255 255 255 254 254 254 245 245 245 
255 255 255 255 255 255 255 255 255 255 255 255 254 254 254 255 255 255 255 255 255 255 255 255 253 253 253 255 255 255 255 255 255 255 255 255 254 254 254 255 255 255 255 255 255 255 255 255 245 245 245 238 238 238 255 255 255 254 254 254 246 246 246 255 255 255 255 255 255 255 255 255 255 255 255 255 255 255 255 255 255 255 255 255 187 187 187 170 170 170 161 161 161 255 255 255 255 255 255 255 255 255 255 255 255 255 255 255 255 255 255 255 255 255 
250 250 250 255 255 255 255 255 255 255 255 255 251 251 251 255 255 255 255 255 255 254 254 254 255 255 255 255 255 255 255 255 255 255 255 255 249 249 249 242 242 242 255 255 255 255 255 255 255 255 255 255 255 255 255 255 255 255 255 255 255 255 255 255 255 255 255 255 255 255 255 255 255 255 255 255 255 255 156 156 156 255 255 255 255 255 255 255 255 255 248 248 248 247 247 247 244 244 244 248 248 248 248 248 248 255 255 255 255 255 255 243 243 243 
255 255 255 255 255 255 255 255 255 255 255 255 255 255 255 255 255 255 255 255 255 255 255 255 252 252 252 237 237 237 255 255 255 252 252 252 255 255 255 255 255 255 255 255 255 164 164 164 180 180 180 177 177 177 169 169 169 170 170 170 181 181 181 191 191 191 198 198 198 197 197 197 255 255 255 255 255 255 246 246 246 247 247 247 245 245 245 243 243 243 247 247 247 254 254 254 255 255 255 242 242 242 255 255 255 255 255 255 255 255 255 255 255 255 
255 255 255 255 255 255 255 255 255 255 255 255 251 251 251 235 235 235 255 255 255 251 251 251 255 255 255 255 255 255 255 255 255 169 169 169 192 192 192 205 205 205 206 206 206 212 212 212 222 222 222 227 227 227 232 232 232 225 225 225 209 209 209 188 188 188 255 255 255 255 255 255 255 255 255 253 253 253 248 248 248 254 254 254 255 255 255 242 242 242 255 255 255 255 255 255 254 254 254 255 255 255 255 255 255 255 255 255 255 255 255 253 253 253 
249 249 249 234 234 234 255 255 255 249 249 249 255 255 255 255 255 255 255 255 255 164 164 164 199 199 199 223 223 223 228 228 228 236 236 236 243 243 243 247 247 247 247 247 247 240 240 240 223 223 223 200 200 200 178 178 178 255 255 255 254 254 254 251 251 251 248 248 248 254 254 254 255 255 255 242 242 242 255 255 255 255 255 255 251 251 251 254 254 254 253 253 253 252 252 252 255 255 255 253 253 253 249 249 249 234 234 234 255 255 255 251 251 251 
255 255 255 255 255 255 255 255 255 161 161 161 189 189 189 206 206 206 222 222 222 232 232 232 238 238 238 239 239 239 238 238 238 231 231 231 217 217 217 197 197 197 162 162 162 255 255 255 255 255 255 255 255 255 245 245 245 255 255 255 255 255 255 242 242 242 255 255 255 254 254 254 250 250 250 253 253 253 252 252 252 251 251 251 255 255 255 253 253 253 249 249 249 237 237 237 255 255 255 254 254 254 255 255 255 255 255 255 255 255 255 169 169 169 
180 180 180 183 183 183 193 193 193 199 199 199 201 201 201 203 203 203 201 201 201 196 196 196 186 186 186 172 172 172 180 180 180 255 255 255 255 255 255 255 255 255 255 255 255 253 253 253 255 255 255 243 243 243 255 255 255 254 254 254 250 250 250 251 251 251 250 250 250 251 251 251 255 255 255 253 253 253 251 251 251 238 238 238 255 255 255 255 255 255 255 255 255 255 255 255 255 255 255 255 255 255 255 255 255 255 255 255 255 255 255 255 255 255 
255 255 255 255 255 255 255 255 255 255 255 255 255 255 255 255 255 255 243 243 243 255 255 255 245 245 245 243 243 243 242 242 242 238 238 238 235 235 235 237 237 237 255 255 255 254 254 254 250 250 250 250 250 250 250 250 250 251 251 251 255 255 255 254 254 254 252 252 252 241 241 241 255 255 255 255 255 255 255 255 255 255 255 255 255 255 255 255 255 255 255 255 255 255 255 255 255 255 255 255 255 255 254 254 254 254 254 254 252 252 252 252 252 252 
252 252 252 252 252 252 252 252 252 251 251 251 239 239 239 244 244 244 241 241 241 236 236 236 234 234 234 237 237 237 247 247 247 255 255 255 243 243 243 246 246 246 245 245 245 244 244 244 251 251 251 246 246 246 247 247 247 237 237 237 255 255 255 255 255 255 255 255 255 255 255 255 253 253 253 248 248 248 241 241 241 235 235 235 254 254 254 255 255 255 255 255 255 253 253 253 252 252 252 252 252 252 253 253 253 255 255 255 254 254 254 255 255 255 
255 255 255 255 255 255 255 255 255 248 248 248 251 251 251 249 249 249 254 254 254 255 255 255 255 255 255 244 244 244 232 232 232 234 234 234 235 235 235 232 232 232 233 233 233 240 240 240 251 251 251 255 255 255 255 255 255 255 255 255 247 247 247 232 232 232 233 233 233 236 236 236 255 255 255 255 255 255 255 255 255 255 255 255 254 254 254 254 254 254 255 255 255 255 255 255 255 255 255 255 255 255 255 255 255 255 255 255 255 255 255 255 255 255 
255 255 255 251 251 251 255 255 255 255 255 255 255 255 255 239 239 239 249 249 249 249 249 249 255 255 255 255 255 255 255 255 255 255 255 255 255 255 255 255 255 255 255 255 255 255 255 255 252 252 252 251 251 251 248 248 248 249 249 249 255 255 255 255 255 255 255 255 255 255 255 255 255 255 255 255 255 255 255 255 255 255 255 255 255 255 255 255 255 255 255 255 255 255 255 255 255 255 255 255 255 255 255 255 255 255 255 255 255 255 255 255 255 255 
248 248 248 240 240 240 234 234 234 233 233 233 230 230 230 232 232 232 255 255 255 254 254 254 254 254 254 255 255 255 255 255 255 255 255 255 255 255 255 255 255 255 255 255 255 255 255 255 255 255 255 255 255 255 255 255 255 255 255 255 255 255 255 255 255 255 255 255 255 255 255 255 255 255 255 255 255 255 255 255 255 255 255 255 255 255 255 255 255 255 255 255 255 255 255 255 255 255 255 255 255 255 255 255 255 255 255 255 255 255 255 255 255 255 
255 255 255 255 255 255 255 255 255 255 255 255 255 255 255 255 255 255 255 255 255 255 255 255 255 255 255 255 255 255 255 255 255 255 255 255 255 255 255 255 255 255 255 255 255 255 255 255 255 255 255 255 255 255 255 255 255 255 255 255 255 255 255 255 255 255 255 255 255 255 255 255 255 255 255 255 255 255 255 255 255 255 255 255 253 253 253 255 255 255 255 255 255 255 255 255 255 255 255 255 255 255 255 255 255 255 255 255 255 255 255 255 255 255 
255 255 255 255 255 255 255 255 255 255 255 255 255 255 255 255 255 255 255 255 255 255 255 255 255 255 255 255 255 255 255 255 255 255 255 255 255 255 255 255 255 255 255 255 255 255 255 255 255 255 255 255 255 255 255 255 255 255 255 255 255 255 255 255 255 255 255 255 255 255 255 255 255 255 255 255 255 255 255 255 255 255 255 255 255 255 255 255 255 255 255 255 255 255 255 255 255 255 255 255 255 255 255 255 255 255 255 255 255 255 255 255 255 255 
