P3
38 36 255
251 251 251 254 254 254 254 254 254 254 254 254 254 254 254 254 254 254 248 248 248 248 248 248 251 251 251 254 254 254 254 254 254 254 254 254 254 254 254 254 254 254 254 254 254 254 254 254 254 254 254 253 253 253 248 248 248 250 250 250 254 254 254 250 250 250 250 250 250 254 254 254 250 250 250 254 254 254 248 248 248 254 254 254 248 248 248 248 248 248 254 254 254 254 254 254 254 254 254 250 250 250 251 251 251 254 254 254 254 254 254 254 254 254 
254 254 254 254 254 254 250 250 250 248 248 248 250 250 250 251 251 251 254 254 254 254 254 254 254 254 254 254 254 254 254 254 254 254 254 254 254 254 254 254 254 254 250 250 250 250 250 250 238 238 238 250 250 250 254 254 254 232 232 232 248 248 248 254 254 254 254 254 254 254 254 254 254 254 254 254 254 254 250 250 250 254 254 254 254 254 254 241 241 241 254 254 254 242 242 242 250 250 250 251 251 251 248 248 248 251 251 251 250 250 250 248 248 248 
244 244 244 242 242 242 244 244 244 246 246 246 250 250 250 250 250 250 250 250 250 250 250 250 253 253 253 254 254 254 247 247 247 248 248 248 254 254 254 251 251 251 235 235 235 19 19 19 4 4 4 0 0 0 0 0 0 0 0 0 0 0 0 12 12 12 0 0 0 0 0 0 0 0 0 4 4 4 237 237 237 254 254 254 251 251 251 254 254 254 254 254 254 254 254 254 244 244 244 241 241 241 229 229 229 226 226 226 228 228 228 229 229 229 
220 220 220 226 226 226 223 223 223 231 231 231 238 238 238 248 248 248 250 250 250 250 250 250 254 254 254 254 254 254 254 254 254 0 0 0 0 0 0 0 0 0 0 0 0 0 0 0 0 0 0 6 6 6 3 3 3 9 9 9 4 4 4 0 0 0 254 254 254 254 254 254 254 254 254 254 254 254 254 254 254 251 251 251 244 244 244 244 244 244 198 198 198 192 192 192 197 197 197 198 198 198 198 198 198 195 195 195 190 190 190 203 203 203 
235 235 235 250 250 250 250 250 250 250 250 250 243 243 243 254 254 254 254 254 254 2 2 2 4 4 4 15 15 15 0 0 0 4 4 4 17 17 17 0 0 0 0 0 0 0 0 0 0 0 0 8 8 8 254 254 254 253 253 253 254 254 254 254 254 254 248 248 248 247 247 247 213 213 213 218 218 218 232 232 232 241 241 241 48 48 48 50 50 50 50 50 50 42 42 42 42 42 42 85 85 85 213 213 213 251 251 251 254 254 254 254 254 254 
254 254 254 254 254 254 248 248 248 0 0 0 0 0 0 0 0 0 0 0 0 4 4 4 0 0 0 0 0 0 15 15 15 12 12 12 0 0 0 2 2 2 254 254 254 254 254 254 254 254 254 254 254 254 254 254 254 238 238 238 197 197 197 189 189 189 200 200 200 210 210 210 220 220 220 217 217 217 24 24 24 18 18 18 15 15 15 47 47 47 218 218 218 254 254 254 254 254 254 254 254 254 254 254 254 254 254 254 251 251 251 9 9 9 
6 6 6 0 0 0 3 3 3 0 0 0 3 3 3 0 0 0 0 0 0 0 0 0 0 0 0 4 4 4 254 254 254 254 254 254 254 254 254 254 254 254 244 244 244 204 204 204 69 69 69 38 38 38 47 47 47 58 58 58 73 73 73 69 69 69 47 47 47 39 39 39 16 16 16 37 37 37 219 219 219 248 248 248 254 254 254 254 254 254 254 254 254 254 254 254 254 254 254 1 1 1 3 3 3 0 0 0 8 8 8 0 0 0 
0 0 0 11 11 11 0 0 0 12 12 12 0 0 0 0 0 0 254 254 254 253 253 253 254 254 254 254 254 254 254 254 254 226 226 226 58 58 58 13 13 13 11 11 11 19 19 19 39 39 39 37 37 37 12 12 12 4 4 4 16 16 16 22 22 22 219 219 219 248 248 248 254 254 254 254 254 254 254 254 254 254 254 254 254 254 254 0 0 0 9 9 9 0 0 0 2 2 2 0 0 0 0 0 0 0 0 0 0 0 0 2 2 2 
4 4 4 0 0 0 254 254 254 254 254 254 254 254 254 254 254 254 254 254 254 223 223 223 41 41 41 0 0 0 0 0 0 0 0 0 19 19 19 18 18 18 0 0 0 0 0 0 0 0 0 4 4 4 4 4 4 11 11 11 254 254 254 254 254 254 254 254 254 254 254 254 244 244 244 9 9 9 6 6 6 8 8 8 0 0 0 4 4 4 6 6 6 6 6 6 0 0 0 0 0 0 4 4 4 0 0 0 254 254 254 253 253 253 
254 254 254 254 254 254 254 254 254 223 223 223 41 41 41 0 0 0 0 0 0 0 0 0 19 19 19 18 18 18 0 0 0 0 0 0 0 0 0 4 4 4 4 4 4 11 11 11 16 16 16 37 37 37 254 254 254 254 254 254 250 250 250 1 1 1 0 0 0 2 2 2 0 0 0 0 0 0 0 0 0 0 0 0 0 0 0 0 0 0 0 0 0 0 0 0 254 254 254 250 250 250 254 254 254 254 254 254 254 254 254 226 226 226 
58 58 58 13 13 13 11 11 11 19 19 19 39 39 39 37 37 37 12 12 12 4 4 4 16 16 16 22 22 22 24 24 24 18 18 18 15 15 15 47 47 47 218 218 218 254 254 254 254 254 254 0 0 0 0 0 0 0 0 0 9 9 9 2 2 2 0 0 0 1 1 1 9 9 9 4 4 4 4 4 4 0 0 0 254 254 254 254 254 254 254 254 254 254 254 254 244 244 244 204 204 204 69 69 69 38 38 38 47 47 47 58 58 58 
73 73 73 69 69 69 47 47 47 39 39 39 48 48 48 50 50 50 50 50 50 42 42 42 42 42 42 85 85 85 213 213 213 251 251 251 254 254 254 254 254 254 0 0 0 0 0 0 0 0 0 0 0 0 13 13 13 2 2 2 0 0 0 0 0 0 0 0 0 11 11 11 235 235 235 250 250 250 254 254 254 254 254 254 254 254 254 238 238 238 197 197 197 189 189 189 200 200 200 210 210 210 220 220 220 217 217 217 198 198 198 192 192 192 
197 197 197 198 198 198 198 198 198 195 195 195 190 190 190 203 203 203 235 235 235 250 250 250 250 250 250 250 250 250 243 243 243 251 251 251 244 244 244 254 254 254 246 246 246 246 246 246 254 254 254 254 254 254 254 254 254 229 229 229 254 254 254 248 248 248 254 254 254 254 254 254 248 248 248 247 247 247 213 213 213 218 218 218 232 232 232 241 241 241 244 244 244 241 241 241 229 229 229 226 226 226 228 228 228 229 229 229 220 220 220 226 226 226 
223 223 223 231 231 231 238 238 238 248 248 248 250 250 250 250 250 250 254 254 254 254 254 254 240 240 240 15 15 15 254 254 254 250 250 250 250 250 250 250 250 250 254 254 254 253 253 253 254 254 254 247 247 247 254 254 254 254 254 254 254 254 254 251 251 251 244 244 244 244 244 244 248 248 248 251 251 251 250 250 250 248 248 248 244 244 244 242 242 242 244 244 244 246 246 246 250 250 250 250 250 250 250 250 250 250 250 250 253 253 253 254 254 254 
247 247 247 248 248 248 234 234 234 246 246 246 254 254 254 247 247 247 254 254 254 254 254 254 254 254 254 254 254 254 253 253 253 254 254 254 242 242 242 254 254 254 251 251 251 254 254 254 254 254 254 254 254 254 254 254 254 254 254 254 254 254 254 254 254 254 250 250 250 248 248 248 250 250 250 251 251 251 254 254 254 254 254 254 254 254 254 254 254 254 254 254 254 254 254 254 254 254 254 254 254 254 250 250 250 250 250 250 254 254 254 254 254 254 
234 234 234 254 254 254 246 246 246 254 254 254 246 246 246 254 254 254 254 254 254 254 254 254 251 251 251 244 244 244 251 251 251 254 254 254 251 251 251 250 250 250 254 254 254 254 254 254 254 254 254 254 254 254 248 248 248 248 248 248 248 248 248 251 251 251 254 254 254 254 254 254 254 254 254 254 254 254 254 254 254 254 254 254 254 254 254 254 254 254 253 253 253 254 254 254 232 232 232 251 251 251 250 250 250 254 254 254 254 254 254 250 250 250 
251 251 251 247 247 247 250 250 250 251 251 251 251 251 251 248 248 248 250 250 250 254 254 254 244 244 244 254 254 254 241 241 241 254 254 254 254 254 254 254 254 254 248 248 248 244 244 244 242 242 242 242 242 242 244 244 244 250 250 250 254 254 254 254 254 254 254 254 254 254 254 254 254 254 254 254 254 254 254 254 254 254 254 254 250 250 250 248 248 248 253 253 253 254 254 254 254 254 254 251 251 251 244 244 244 242 242 242 242 242 242 247 247 247 
248 248 248 254 254 254 254 254 254 254 254 254 251 251 251 250 250 250 242 242 242 247 247 247 254 254 254 254 254 254 251 251 251 248 248 248 244 244 244 242 242 242 244 244 244 248 248 248 248 248 248 248 248 248 254 254 254 254 254 254 254 254 254 254 254 254 250 250 250 254 254 254 247 247 247 248 248 248 254 254 254 254 254 254 254 254 254 253 253 253 243 243 243 234 234 234 241 241 241 247 247 247 253 253 253 254 254 254 254 254 254 254 254 254 
247 247 247 248 248 248 242 242 242 250 250 250 254 254 254 254 254 254 254 254 254 251 251 251 248 248 248 246 246 246 246 246 246 246 246 246 248 248 248 243 243 243 248 248 248 248 248 248 247 247 247 248 248 248 246 246 246 244 244 244 244 244 244 250 250 250 254 254 254 254 254 254 254 254 254 254 254 254 254 254 254 251 251 251 251 251 251 254 254 254 254 254 254 254 254 254 254 254 254 254 254 254 254 254 254 242 242 242 253 253 253 254 254 254 
254 254 254 254 254 254 254 254 254 254 254 254 254 254 254 254 254 254 254 254 254 254 254 254 248 248 248 244 244 244 242 242 242 234 234 234 229 229 229 240 240 240 240 240 240 235 235 235 244 244 244 254 254 254 254 254 254 254 254 254 254 254 254 254 254 254 254 254 254 254 254 254 254 254 254 254 254 254 254 254 254 254 254 254 254 254 254 254 254 254 254 254 254 254 254 254 254 254 254 250 250 250 254 254 254 251 251 251 254 254 254 254 254 254 
254 254 254 254 254 254 254 254 254 254 254 254 240 240 240 244 244 244 242 242 242 240 240 240 237 237 237 238 238 238 244 244 244 246 246 246 250 250 250 254 254 254 254 254 254 253 253 253 247 247 247 250 250 250 244 244 244 238 238 238 232 232 232 238 238 238 241 241 241 250 250 250 243 243 243 241 241 241 254 254 254 250 250 250 244 244 244 254 254 254 254 254 254 254 254 254 254 254 254 254 254 254 254 254 254 254 254 254 254 254 254 254 254 254 
254 254 254 254 254 254 237 237 237 243 243 243 244 244 244 243 243 243 244 244 244 254 254 254 254 254 254 254 254 254 254 254 254 250 250 250 243 243 243 248 248 248 248 248 248 242 242 242 246 246 246 251 251 251 254 254 254 254 254 254 248 248 248 247 247 247 254 254 254 254 254 254 235 235 235 254 254 254 250 250 250 254 254 254 253 253 253 254 254 254 254 254 254 254 254 254 254 254 254 254 254 254 254 254 254 254 254 254 254 254 254 244 244 244 
254 254 254 254 254 254 254 254 254 254 254 254 254 254 254 254 254 254 254 254 254 254 254 254 253 253 253 254 254 254 254 254 254 254 254 254 254 254 254 254 254 254 254 254 254 254 254 254 244 244 244 238 238 238 254 254 254 254 254 254 246 246 246 254 254 254 254 254 254 254 254 254 254 254 254 254 254 254 254 254 254 254 254 254 187 187 187 170 170 170 161 161 161 254 254 254 254 254 254 254 254 254 254 254 254 254 254 254 254 254 254 254 254 254 
250 250 250 254 254 254 254 254 254 254 254 254 250 250 250 254 254 254 254 254 254 254 254 254 254 254 254 254 254 254 254 254 254 254 254 254 248 248 248 242 242 242 254 254 254 254 254 254 254 254 254 254 254 254 254 254 254 254 254 254 254 254 254 254 254 254 254 254 254 254 254 254 254 254 254 254 254 254 156 156 156 254 254 254 254 254 254 254 254 254 248 248 248 247 247 247 244 244 244 248 248 248 248 248 248 254 254 254 254 254 254 243 243 243 
254 254 254 254 254 254 254 254 254 254 254 254 254 254 254 254 254 254 254 254 254 254 254 254 251 251 251 237 237 237 254 254 254 251 251 251 254 254 254 254 254 254 254 254 254 164 164 164 180 180 180 177 177 177 169 169 169 170 170 170 181 181 181 190 190 190 198 198 198 197 197 197 254 254 254 254 254 254 246 246 246 247 247 247 244 244 244 243 243 243 247 247 247 254 254 254 254 254 254 242 242 242 254 254 254 254 254 254 254 254 254 254 254 254 
254 254 254 254 254 254 254 254 254 254 254 254 250 250 250 235 235 235 254 254 254 250 250 250 254 254 254 254 254 254 254 254 254 169 169 169 192 192 192 204 204 204 206 206 206 212 212 212 222 222 222 226 226 226 232 232 232 225 225 225 209 209 209 188 188 188 254 254 254 254 254 254 254 254 254 253 253 253 248 248 248 254 254 254 254 254 254 242 242 242 254 254 254 254 254 254 254 254 254 254 254 254 254 254 254 254 254 254 254 254 254 253 253 253 
248 248 248 234 234 234 254 254 254 248 248 248 254 254 254 254 254 254 254 254 254 164 164 164 198 198 198 223 223 223 228 228 228 235 235 235 243 243 243 247 247 247 247 247 247 240 240 240 223 223 223 200 200 200 177 177 177 254 254 254 254 254 254 250 250 250 248 248 248 254 254 254 254 254 254 242 242 242 254 254 254 254 254 254 250 250 250 254 254 254 253 253 253 251 251 251 254 254 254 253 253 253 248 248 248 234 234 234 254 254 254 250 250 250 
254 254 254 254 254 254 254 254 254 161 161 161 189 189 189 206 206 206 222 222 222 232 232 232 238 238 238 238 238 238 238 238 238 231 231 231 217 217 217 197 197 197 162 162 162 254 254 254 254 254 254 254 254 254 244 244 244 254 254 254 254 254 254 242 242 242 254 254 254 254 254 254 250 250 250 253 253 253 251 251 251 250 250 250 254 254 254 253 253 253 248 248 248 237 237 237 254 254 254 254 254 254 254 254 254 254 254 254 254 254 254 169 169 169 
180 180 180 183 183 183 192 192 192 198 198 198 201 201 201 203 203 203 201 201 201 195 195 195 186 186 186 171 171 171 180 180 180 254 254 254 254 254 254 254 254 254 254 254 254 253 253 253 254 254 254 243 243 243 254 254 254 254 254 254 250 250 250 250 250 250 250 250 250 250 250 250 254 254 254 253 253 253 250 250 250 238 238 238 254 254 254 254 254 254 254 254 254 254 254 254 254 254 254 254 254 254 254 254 254 254 254 254 254 254 254 254 254 254 
254 254 254 254 254 254 254 254 254 254 254 254 254 254 254 254 254 254 243 243 243 254 254 254 244 244 244 243 243 243 242 242 242 238 238 238 235 235 235 237 237 237 254 254 254 254 254 254 250 250 250 250 250 250 250 250 250 250 250 250 254 254 254 254 254 254 251 251 251 241 241 241 254 254 254 254 254 254 254 254 254 254 254 254 254 254 254 254 254 254 254 254 254 254 254 254 254 254 254 254 254 254 254 254 254 254 254 254 251 251 251 251 251 251 
251 251 251 251 251 251 251 251 251 250 250 250 238 238 238 244 244 244 241 241 241 235 235 235 234 234 234 237 237 237 247 247 247 254 254 254 243 243 243 246 246 246 244 244 244 244 244 244 250 250 250 246 246 246 247 247 247 237 237 237 254 254 254 254 254 254 254 254 254 254 254 254 253 253 253 248 248 248 241 241 241 235 235 235 254 254 254 254 254 254 254 254 254 253 253 253 251 251 251 251 251 251 253 253 253 254 254 254 254 254 254 254 254 254 
254 254 254 254 254 254 254 254 254 248 248 248 250 250 250 248 248 248 254 254 254 254 254 254 254 254 254 244 244 244 232 232 232 234 234 234 235 235 235 232 232 232 232 232 232 240 240 240 250 250 250 254 254 254 254 254 254 254 254 254 247 247 247 232 232 232 232 232 232 235 235 235 254 254 254 254 254 254 254 254 254 254 254 254 254 254 254 254 254 254 254 254 254 254 254 254 254 254 254 254 254 254 254 254 254 254 254 254 254 254 254 254 254 254 
254 254 254 250 250 250 254 254 254 254 254 254 254 254 254 238 238 238 248 248 248 248 248 248 254 254 254 254 254 254 254 254 254 254 254 254 254 254 254 254 254 254 254 254 254 254 254 254 251 251 251 250 250 250 248 248 248 248 248 248 254 254 254 254 254 254 254 254 254 254 254 254 254 254 254 254 254 254 254 254 254 254 254 254 254 254 254 254 254 254 254 254 254 254 254 254 254 254 254 254 254 254 254 254 254 254 254 254 254 254 254 254 254 254 
248 248 248 240 240 240 234 234 234 232 232 232 229 229 229 232 232 232 254 254 254 254 254 254 254 254 254 254 254 254 254 254 254 254 254 254 254 254 254 254 254 254 254 254 254 254 254 254 254 254 254 254 254 254 254 254 254 254 254 254 254 254 254 254 254 254 254 254 254 254 254 254 254 254 254 254 254 254 254 254 254 254 254 254 254 254 254 254 254 254 254 254 254 254 254 254 254 254 254 254 254 254 254 254 254 254 254 254 254 254 254 254 254 254 
254 254 254 254 254 254 254 254 254 254 254 254 254 254 254 254 254 254 254 254 254 254 254 254 254 254 254 254 254 254 254 254 254 254 254 254 254 254 254 254 254 254 254 254 254 254 254 254 254 254 254 254 254 254 254 254 254 254 254 254 254 254 254 254 254 254 254 254 254 254 254 254 254 254 254 254 254 254 254 254 254 254 254 254 253 253 253 254 254 254 254 254 254 254 254 254 254 254 254 254 254 254 254 254 254 254 254 254 254 254 254 254 254 254 
254 254 254 254 254 254 254 254 254 254 254 254 254 254 254 254 254 254 254 254 254 254 254 254 254 254 254 254 254 254 254 254 254 254 254 254 254 254 254 254 254 254 254 254 254 254 254 254 254 254 254 254 254 254 254 254 254 254 254 254 254 254 254 254 254 254 254 254 254 254 254 254 254 254 254 254 254 254 254 254 254 254 254 254 254 254 254 254 254 254 254 254 254 254 254 254 254 254 254 254 254 254 254 254 254 254 254 254 254 254 254 254 254 254 
